<?xml version="1.0" encoding="utf-8"?>
<!-- Generator: Adobe Illustrator 24.2.0, SVG Export Plug-In . SVG Version: 6.00 Build 0)  -->
<svg version="1.1" id="레이어_1" xmlns="http://www.w3.org/2000/svg" xmlns:xlink="http://www.w3.org/1999/xlink" x="0px"
	 y="0px" viewBox="0 0 26 26" style="enable-background:new 0 0 26 26;" xml:space="preserve">
<g>
	<polygon points="7.7,10.8 6.4,10.9 4.2,9 8.6,8.7 	"/>
	<polygon points="19.8,15.8 21,21.3 17.7,19.3 17.4,17.9 	"/>
	<polygon points="25,9 22.3,11.4 15.1,10.8 12.9,5.6 14.6,1.5 17.5,8.4 	"/>
	<polygon points="19.4,14.3 16.1,17.2 16.4,18.5 17.8,24.5 11.4,20.6 5,24.5 6.7,17.2 1,12.3 7.3,11.7 8.5,11.6 9.8,8.6 11.4,4.7 
		12.3,6.9 14.3,11.6 21.3,12.2 21.8,12.3 	"/>
</g>
</svg>
