<?xml version="1.0" encoding="utf-8"?>
<!-- Generator: Adobe Illustrator 24.2.0, SVG Export Plug-In . SVG Version: 6.00 Build 0)  -->
<svg version="1.1" id="레이어_1" xmlns="http://www.w3.org/2000/svg" xmlns:xlink="http://www.w3.org/1999/xlink" x="0px"
	 y="0px" viewBox="0 0 26 26" style="enable-background:new 0 0 26 26;" xml:space="preserve">
<path d="M9.7,25c0,0-0.1,0-0.1,0c-0.8-0.3-1.6-0.6-2.3-1.1c-1.6-1.1-2.8-2.6-3.3-4.5c-0.3-1.5-0.2-3,0.2-4.5
	c0.4-1.7,1.3-3.1,2.4-4.4c0.9-1.1,1.9-2,2.7-3.1c0.6-0.7,1.1-1.5,1.4-2.4c0.4-1.1,0.3-2.3,0-3.4c-0.1-0.5,0.1-0.7,0.6-0.6
	c1.2,0.2,2.2,0.7,3.1,1.5c1.3,1,2.1,2.3,2.1,4c0,0.8,0,1.7,0,2.5c0,0.4,0,0.7,0.2,1.1c0.1,0.2,0.2,0.4,0.4,0.4
	c0.4,0.1,1.1-0.1,1.2-0.7c0.1-0.4,0.1-0.8,0.1-1.2c0-0.1,0-0.3,0-0.4c0.1-0.3,0.4-0.4,0.7-0.2c0.1,0.1,0.1,0.1,0.2,0.2
	c0.8,1.2,1.5,2.5,2,3.9c0.6,1.6,0.9,3.2,0.9,4.9c0,0.8,0,1.7-0.2,2.5c-0.8,2.7-2.7,4.3-5.2,5.3c-0.2,0.1-0.4,0-0.5-0.1
	c-0.1-0.2-0.1-0.4,0.1-0.5c0.2-0.2,0.3-0.4,0.5-0.6c1.2-1.6,1.1-3.3-0.4-4.7c-0.4-0.3-0.7-0.7-1.1-1c-0.8-0.8-1.4-1.8-1.7-2.9
	c0-0.2-0.1-0.4-0.1-0.6c-0.1,0-0.1,0.1-0.2,0.2c-0.3,0.4-0.5,0.8-0.8,1.2c-0.7,0.9-1.5,1.7-2.2,2.5c-0.9,1.1-1.2,2.4-1,3.9
	c0.1,0.7,0.4,1.4,0.8,2C10.2,24.6,10.1,24.8,9.7,25z"/>
</svg>
