<?xml version="1.0" encoding="utf-8"?>
<!-- Generator: Adobe Illustrator 24.2.0, SVG Export Plug-In . SVG Version: 6.00 Build 0)  -->
<svg version="1.1" id="레이어_1" xmlns="http://www.w3.org/2000/svg" xmlns:xlink="http://www.w3.org/1999/xlink" x="0px"
	 y="0px" viewBox="0 0 26 26" style="enable-background:new 0 0 26 26;" xml:space="preserve">
<g>
	<g>
		<path d="M10.3,3.2v1.7c-1-0.4-2.1-0.6-3.2-0.6C4.9,4.3,2.7,5.1,1,6.8l4.1,4.1h1.4v1.4c1.1,1.1,2.4,1.6,3.8,1.7v2.8H6.6v3.7
			c0,1.4,1.1,2.5,2.5,2.5h12.3c2,0,3.7-1.6,3.7-3.7v-16H10.3z M8.9,11V8.4H6.1L4.8,7.1c0.7-0.3,1.5-0.4,2.2-0.4
			c1.6,0,3.2,0.6,4.3,1.8l1.7,1.7l-0.2,0.2c-0.6,0.6-1.5,1-2.4,1C10,11.5,9.4,11.3,8.9,11z M22.5,19.1c0,0.7-0.6,1.2-1.2,1.2
			c-0.7,0-1.2-0.6-1.2-1.2v-2.5h-7.4v-3.2c0.7-0.3,1.4-0.7,1.9-1.3l0.2-0.2l3.5,3.5h1.7v-1.7l-7.4-7.3V5.6h9.8
			C22.5,5.6,22.5,19.1,22.5,19.1z"/>
	</g>
</g>
</svg>
