<svg id="레이어_1" data-name="레이어 1" xmlns="http://www.w3.org/2000/svg" viewBox="0 0 21.34 24"><path d="M6.15,23.69a2.46,2.46,0,0,1-.57.13,2.4,2.4,0,0,0,.91-.23l5.33-2Z" transform="translate(-2.33 -1)"/><path d="M17.76,22.2a2.9,2.9,0,0,1-2.15,2.66,2.83,2.83,0,0,1-3.12-.94c-.2-.27-.23-.44.14-.57l4.58-1.76C17.65,21.43,17.79,21.59,17.76,22.2Z" transform="translate(-2.33 -1)"/><path d="M22.65,17.42c-2.19.85-4.39,1.68-6.59,2.52l-3.31,1.27,9.58-3.63a2.43,2.43,0,0,0,.81-.43A1.93,1.93,0,0,1,22.65,17.42Z" transform="translate(-2.33 -1)"/><path d="M22.59,14.43A5.48,5.48,0,0,1,20,11.61a1.89,1.89,0,0,1-.11-.25c-.4-1-.76-2-1.14-3a8.29,8.29,0,0,0-7.38-5.79c-.32,0-.65-.05-1-.05h-.08c-.22,0-.35-.11-.49-.34A2.31,2.31,0,0,0,8.43,1.07L8.16,1a1.51,1.51,0,0,0-.3,0L7.57,1l-.32.07a2.19,2.19,0,0,0-.33.12l-.32.17a1.24,1.24,0,0,0-.23.17l-.18.17A2.34,2.34,0,0,0,5.6,3.8c.05.24.05.41-.11.54,0,0,0,0,0,0l-.06.06c-.24.22-.47.44-.68.66A8.29,8.29,0,0,0,3,14.34c.38,1,.77,2,1.14,3a2.76,2.76,0,0,1,.08.27,5.52,5.52,0,0,1,0,3.8,1.65,1.65,0,0,0,1.25,2.4h.12a2.46,2.46,0,0,0,.57-.13l5.67-2.13.93-.35,3.31-1.27c2.2-.84,4.4-1.67,6.59-2.52a1.93,1.93,0,0,0,.49-.27l.13-.12A1.65,1.65,0,0,0,22.59,14.43ZM5.17,12.85c-.2,0-.27-.11-.32-.26a2.71,2.71,0,0,1-.09-.77c0-.21-.14-.58.23-.63s.29.36.34.59.06.46.08.69S5.38,12.82,5.17,12.85ZM7.83,6.26A6.45,6.45,0,0,0,6.62,7.5a6.2,6.2,0,0,0-1,1.91,2.67,2.67,0,0,1-.09.26.29.29,0,0,1-.35.22C5,9.85,5,9.7,5,9.5l.08-.28A7.6,7.6,0,0,1,6.21,7,6.18,6.18,0,0,1,7.43,5.81c.2-.15.42-.38.64-.09S8,6.12,7.83,6.26Z" transform="translate(-2.33 -1)"/></svg>