<?xml version="1.0" encoding="utf-8"?>
<!-- Generator: Adobe Illustrator 24.2.0, SVG Export Plug-In . SVG Version: 6.00 Build 0)  -->
<svg fill="rgb(100, 100, 100)" version="1.1" id="레이어_1" xmlns="http://www.w3.org/2000/svg" xmlns:xlink="http://www.w3.org/1999/xlink" x="0px" y="0px" viewBox="0 0 26 26" style="enable-background:new 0 0 26 26;" xml:space="preserve">
	<path d="M13,1C6.4,1,1,6.4,1,13s5.4,12,12,12s12-5.4,12-12S19.6,1,13,1z M13,4.6c2,0,3.6,1.6,3.6,3.6S15,11.8,13,11.8
	s-3.6-1.6-3.6-3.6S11,4.6,13,4.6z M13,21.6c-3,0-5.7-1.5-7.2-3.9c0-2.4,4.8-3.7,7.2-3.7c2.4,0,7.2,1.3,7.2,3.7
	C18.7,20.1,16,21.6,13,21.6z" />
</svg>
