<?xml version="1.0" encoding="utf-8"?>
<!-- Generator: Adobe Illustrator 24.2.0, SVG Export Plug-In . SVG Version: 6.00 Build 0)  -->
<svg version="1.1" id="레이어_1" xmlns="http://www.w3.org/2000/svg" xmlns:xlink="http://www.w3.org/1999/xlink" x="0px"
	 y="0px" viewBox="0 0 26 26" style="enable-background:new 0 0 26 26;" xml:space="preserve">
<path d="M18.1,16H17l-0.3-0.3c1.3-1.6,2.1-3.5,2.1-5.8c0-5-4-9-9-9S1,4.9,1,9.9s4,9,9,9c2.2,0,4.3-0.8,5.8-2.1l0.3,0.3v1.1l6.9,6.9
	L25,23L18.1,16z M10,16c-3.4,0-6.2-2.7-6.2-6.2S6.4,3.5,10,3.5s6.2,2.7,6.2,6.2S13.3,16,10,16z"/>
</svg>
