<?xml version="1.0" encoding="utf-8"?>
<!-- Generator: Adobe Illustrator 24.2.0, SVG Export Plug-In . SVG Version: 6.00 Build 0)  -->
<svg version="1.1" id="레이어_1" xmlns="http://www.w3.org/2000/svg" xmlns:xlink="http://www.w3.org/1999/xlink" x="0px"
	 y="0px" viewBox="0 0 26 26" style="enable-background:new 0 0 26 26;" xml:space="preserve">
<path d="M14.7,2.7C9,2.7,4.4,7.3,4.4,13H1l4.4,4.4l0.1,0.2l4.6-4.6H6.7c0-4.4,3.6-8,8-8s8,3.6,8,8s-3.6,8-8,8
	c-2.2,0-4.2-0.9-5.6-2.4l-1.6,1.6c1.9,1.9,4.4,3,7.3,3C20.4,23.3,25,18.7,25,13S20.4,2.7,14.7,2.7z M13.6,8.4v5.7l4.9,2.9l0.8-1.4
	l-4-2.4V8.4H13.6z"/>
</svg>
