<?xml version="1.0" encoding="utf-8"?>
<!-- Generator: Adobe Illustrator 24.2.0, SVG Export Plug-In . SVG Version: 6.00 Build 0)  -->
<svg version="1.1" id="레이어_1" xmlns="http://www.w3.org/2000/svg" xmlns:xlink="http://www.w3.org/1999/xlink" x="0px"
	 y="0px" viewBox="0 0 26 26" style="enable-background:new 0 0 26 26;" xml:space="preserve">
<path d="M22.2,14.2c0.1-0.4,0.1-0.8,0.1-1.2c0-0.4,0-0.8-0.1-1.2l2.6-2C25,9.6,25.1,9.2,24.9,9l-2.5-4.3c-0.2-0.3-0.5-0.4-0.8-0.3
	l-3.1,1.2c-0.6-0.5-1.3-0.9-2.1-1.2l-0.5-3.3c-0.1-0.3-0.3-0.5-0.6-0.5h-4.9c-0.3,0-0.6,0.2-0.6,0.5L9.5,4.5C8.7,4.8,8,5.2,7.4,5.7
	L4.3,4.4C4,4.3,3.7,4.4,3.6,4.7L1.1,9C0.9,9.2,1,9.6,1.3,9.8l2.6,2c-0.1,0.4-0.1,0.8-0.1,1.2s0,0.8,0.1,1.2l-2.6,2
	C1,16.4,0.9,16.8,1.1,17l2.5,4.3c0.2,0.3,0.5,0.4,0.8,0.3l3.1-1.2c0.6,0.5,1.3,0.9,2.1,1.2l0.5,3.3c0.1,0.3,0.3,0.5,0.6,0.5h4.9
	c0.3,0,0.6-0.2,0.6-0.5l0.5-3.3c0.8-0.3,1.5-0.7,2.1-1.2l3.1,1.2c0.3,0.1,0.6,0,0.8-0.3l2.5-4.3c0.2-0.3,0.1-0.6-0.2-0.8L22.2,14.2z
	 M13,17.6c-2.5,0-4.6-2.1-4.6-4.6s2.1-4.6,4.6-4.6s4.6,2.1,4.6,4.6S15.5,17.6,13,17.6z"/>
</svg>
